<?xml version="1.0" standalone="no"?>
<!DOCTYPE svg PUBLIC "-//W3C//DTD SVG 20010904//EN"
 "http://www.w3.org/TR/2001/REC-SVG-20010904/DTD/svg10.dtd">
<svg version="1.0" xmlns="http://www.w3.org/2000/svg"
 width="1074.000000pt" height="1048.000000pt" viewBox="0 0 1074.000000 1048.000000"
 preserveAspectRatio="xMidYMid meet">

<g transform="translate(0.000000,1048.000000) scale(0.100000,-0.100000)"
fill="#c1b3a5" stroke="#c1b3a5" stroke-width="0">
<path d="M5833 10303 c-12 -2 -33 -15 -47 -28 l-26 -24 0 -653 c0 -359 0
-2294 0 -4300 l0 -3648 -120 -1 c-66 -1 -128 -2 -137 -3 -17 -1 -18 212 -23
4302 l-5 4304 -30 25 c-29 25 -32 26 -140 20 -466 -27 -1043 -200 -1489 -448
-150 -83 -397 -249 -531 -356 -133 -106 -376 -341 -494 -478 -797 -924 -1093
-2169 -796 -3346 108 -428 283 -820 529 -1184 283 -419 703 -825 1114 -1076
319 -194 430 -303 544 -531 58 -116 101 -249 179 -561 102 -407 163 -566 284
-737 l53 -76 4 -104 c3 -75 9 -115 22 -138 17 -32 17 -35 0 -60 -28 -41 -32
-214 -8 -282 17 -47 17 -52 1 -85 -12 -26 -17 -62 -17 -133 0 -81 4 -105 24
-148 42 -90 122 -148 216 -157 32 -3 41 -11 102 -102 101 -149 116 -165 177
-194 l56 -26 340 0 c372 0 388 2 452 58 19 17 67 79 105 137 80 120 90 130
132 130 45 0 127 42 160 81 54 63 66 104 66 222 0 79 -4 116 -16 138 -14 28
-14 34 0 70 22 56 22 236 0 283 -16 32 -16 37 0 75 20 52 22 217 2 264 -25 60
-99 108 -171 112 -7 0 -11 342 -13 1001 l-2 1001 85 194 c46 106 91 199 98
206 21 21 179 61 205 52 13 -5 105 -64 206 -133 101 -68 200 -129 220 -136 21
-7 68 -10 105 -8 77 4 137 31 364 166 154 92 201 130 231 191 35 70 37 96 21
299 -24 297 -25 283 42 354 32 33 66 64 77 70 12 7 94 4 258 -8 274 -20 308
-15 385 51 46 39 151 203 243 378 68 129 82 194 60 275 -6 26 -67 126 -146
244 -74 110 -134 204 -134 210 0 22 44 174 54 187 6 8 106 60 221 116 218 106
259 134 296 207 30 59 42 197 36 413 -6 206 -12 236 -64 309 -30 43 -50 55
-259 158 -252 124 -235 108 -269 244 l-18 71 136 202 c78 115 141 220 148 244
22 80 7 145 -63 279 -81 154 -171 300 -217 352 -20 21 -58 50 -86 62 -60 28
-103 29 -365 9 -102 -8 -189 -15 -194 -15 -4 0 -41 32 -82 72 -87 84 -83 59
-59 361 24 306 10 333 -245 487 -263 160 -345 191 -444 170 -43 -9 -93 -38
-255 -145 -114 -78 -210 -135 -223 -135 -13 0 -59 11 -103 23 l-80 22 -105
211 c-58 117 -117 228 -132 247 -42 54 -120 87 -215 93 -156 9 -208 10 -230 7z
m281 -223 c8 -8 58 -103 111 -210 116 -236 133 -262 187 -294 62 -36 215 -76
290 -76 82 1 105 12 322 159 129 86 188 121 209 121 32 0 120 -45 287 -147
129 -78 137 -84 147 -111 5 -12 1 -123 -8 -248 -17 -236 -15 -274 20 -342 23
-44 173 -192 218 -216 53 -27 107 -29 337 -11 120 9 229 14 241 11 15 -4 42
-36 76 -88 74 -115 189 -329 189 -351 0 -10 -53 -97 -117 -192 -156 -231 -164
-245 -170 -314 -4 -46 1 -82 26 -172 33 -119 61 -170 112 -208 16 -12 122 -66
233 -121 131 -62 208 -105 215 -119 14 -25 22 -320 12 -430 -5 -61 -10 -76
-28 -88 -13 -9 -105 -55 -205 -104 -225 -110 -245 -123 -284 -180 -34 -51 -84
-229 -84 -297 0 -67 25 -117 157 -310 69 -103 129 -197 131 -209 7 -38 -197
-397 -248 -435 -25 -18 -32 -18 -220 -3 -267 21 -305 20 -365 -9 -50 -23 -208
-175 -234 -223 -26 -49 -28 -114 -12 -339 12 -160 13 -233 6 -248 -21 -43
-384 -256 -435 -256 -15 1 -99 51 -215 130 -258 176 -275 181 -477 125 -103
-29 -154 -57 -191 -107 -14 -18 -69 -132 -124 -253 l-98 -220 -3 -1010 c-1
-555 -2 -1016 -2 -1022 0 -9 -23 -13 -80 -13 l-80 0 2 1562 3 1563 95 8 c231
19 500 95 727 206 652 320 1093 939 1183 1661 15 123 12 401 -5 535 -111 847
-744 1562 -1570 1775 -103 26 -244 51 -377 65 l-58 6 0 536 0 535 70 -4 c44
-2 75 -9 84 -18z m-834 -4210 l0 -4220 -219 0 -219 0 -47 69 c-98 148 -143
274 -245 681 -77 309 -120 441 -187 574 -126 251 -268 396 -561 574 -391 238
-739 551 -1006 907 -272 362 -478 787 -594 1225 -280 1061 -48 2193 627 3060
509 654 1218 1103 2026 1285 125 28 337 63 393 64 l32 1 0 -4220z m950 2920
c368 -76 694 -248 963 -509 302 -292 493 -655 564 -1071 23 -140 28 -385 9
-537 -92 -751 -611 -1378 -1333 -1609 -100 -32 -300 -72 -397 -81 l-76 -6 0
1923 0 1923 83 -6 c45 -3 129 -15 187 -27z m100 -7397 c0 -34 -6 -53 -22 -70
l-21 -23 -673 0 -673 0 -20 26 c-14 18 -21 41 -21 70 l0 44 715 0 715 0 0 -47z
m0 -352 c0 -99 65 -91 -716 -91 l-683 0 -15 22 c-14 20 -23 108 -12 119 2 2
324 4 715 4 l711 0 0 -54z m0 -353 c0 -96 63 -88 -716 -88 l-683 0 -15 22 c-9
13 -16 43 -16 70 l0 48 715 0 715 0 0 -52z m-322 -298 c1 0 -14 -25 -34 -55
l-37 -55 -318 0 -319 0 -35 48 c-19 26 -35 52 -35 57 0 8 361 10 778 5z"/>
<path d="M4345 9611 c-443 -188 -848 -474 -1153 -814 -111 -123 -239 -285
-291 -366 -54 -84 -39 -159 36 -181 61 -18 82 -3 178 127 247 333 490 564 822
783 132 87 368 213 498 265 75 30 122 68 125 100 5 47 -2 68 -29 96 -40 39
-75 37 -186 -10z"/>
</g>
</svg>
