<?xml version="1.0" standalone="no"?>
<!DOCTYPE svg PUBLIC "-//W3C//DTD SVG 20010904//EN"
 "http://www.w3.org/TR/2001/REC-SVG-20010904/DTD/svg10.dtd">
<svg version="1.0" xmlns="http://www.w3.org/2000/svg"
 width="400.000000pt" height="387.000000pt" viewBox="0 0 400.000000 387.000000"
 preserveAspectRatio="xMidYMid meet">

<g transform="translate(0.000000,387.000000) scale(0.100000,-0.100000)"
fill="#fff" stroke="none">
<path d="M1132 2604 l-91 -197 271 -548 271 -549 194 0 c117 0 193 4 193 10 0
9 -739 1480 -744 1480 -1 0 -43 -88 -94 -196z"/>
<path d="M2090 2045 l0 -725 185 0 185 0 0 725 0 725 -185 0 -185 0 0 -725z"/>
<path d="M2907 2603 c59 -93 108 -170 110 -172 2 -3 22 13 46 36 23 22 107 95
187 163 80 68 149 127 154 132 6 4 -128 8 -297 8 l-306 0 106 -167z"/>
<path d="M2665 2128 c-66 -56 -120 -105 -120 -109 0 -4 108 -161 240 -348
l240 -340 223 -1 c122 0 222 2 222 5 0 10 -671 895 -678 895 -4 0 -61 -46
-127 -102z"/>
<path d="M666 1572 c-60 -130 -111 -243 -114 -251 -4 -11 34 -13 231 -9 130 2
239 6 242 10 7 7 -232 488 -243 488 -4 0 -56 -107 -116 -238z"/>
</g>
</svg>
