<?xml version="1.0" standalone="no"?>
<!DOCTYPE svg PUBLIC "-//W3C//DTD SVG 20010904//EN"
 "http://www.w3.org/TR/2001/REC-SVG-20010904/DTD/svg10.dtd">
<svg version="1.0" xmlns="http://www.w3.org/2000/svg"
 width="126.000000pt" height="122.000000pt" viewBox="0 0 126.000000 122.000000"
 preserveAspectRatio="xMidYMid meet">

<g transform="translate(0.000000,122.000000) scale(0.100000,-0.100000)"
fill="#fff" stroke="none">
<path d="M357 819 l-26 -61 84 -169 85 -169 55 0 c30 0 55 5 55 10 0 11 -218
450 -223 450 -2 0 -16 -27 -30 -61z"/>
<path d="M667 863 c-4 -3 -7 -105 -7 -225 l0 -218 55 0 55 0 0 225 0 225 -48
0 c-27 0 -52 -3 -55 -7z"/>
<path d="M876 861 c-3 -4 4 -17 16 -27 11 -11 27 -34 35 -52 l14 -33 58 53
c32 29 56 56 54 61 -6 10 -171 9 -177 -2z"/>
<path d="M847 662 l-36 -37 73 -100 72 -100 63 -3 c51 -2 62 0 58 11 -5 13
-169 242 -186 259 -4 5 -23 -9 -44 -30z"/>
<path d="M230 522 c0 -5 -16 -27 -36 -50 l-36 -42 81 0 81 0 -37 49 c-36 47
-53 61 -53 43z"/>
</g>
</svg>
