<?xml version="1.0" standalone="no"?>
<!DOCTYPE svg PUBLIC "-//W3C//DTD SVG 20010904//EN"
 "http://www.w3.org/TR/2001/REC-SVG-20010904/DTD/svg10.dtd">
<svg version="1.0" xmlns="http://www.w3.org/2000/svg"
 width="312.000000pt" height="358.000000pt" viewBox="0 0 312.000000 358.000000"
 preserveAspectRatio="xMidYMid meet">

<g transform="translate(0.000000,358.000000) scale(0.100000,-0.100000)"
fill="#c1b3a5" stroke="#c1b3a5" stroke-width="100">
<path d="M1169 3532 c-11 -7 -27 -12 -37 -11 -9 2 -34 -3 -55 -10 -21 -7 -44
-10 -52 -7 -8 3 -19 -2 -23 -11 -6 -10 -17 -14 -31 -10 -12 3 -24 0 -29 -7 -4
-7 -29 -20 -56 -29 -58 -20 -195 -99 -221 -127 -10 -11 -23 -20 -29 -20 -7 0
-41 -29 -76 -65 -54 -55 -63 -68 -54 -83 19 -29 40 -20 114 51 39 37 74 67 78
67 5 0 17 8 28 18 10 9 31 23 47 31 15 8 27 18 27 23 0 4 9 8 20 8 11 0 20 5
20 10 0 6 9 10 20 10 11 0 20 5 20 10 0 6 9 10 20 10 17 0 19 5 14 25 -4 15
-2 25 5 25 6 0 11 -7 11 -16 0 -10 7 -14 23 -12 18 2 22 9 20 33 l-2 30 16
-22 c17 -25 39 -30 46 -10 2 6 17 12 33 12 24 0 28 4 26 23 -2 12 2 22 7 22 6
0 10 -6 9 -12 -3 -15 109 -21 118 -7 7 12 247 12 259 0 6 -5 33 -12 60 -15 80
-8 125 -18 131 -27 3 -5 14 -9 25 -9 10 0 27 -4 37 -9 9 -5 51 -25 92 -45 100
-48 132 -68 148 -88 7 -10 19 -18 25 -18 13 0 227 -210 227 -223 0 -5 13 -25
30 -45 32 -41 130 -227 130 -249 0 -7 6 -22 12 -33 18 -28 2 -49 -47 -66 -54
-19 -82 -18 -88 4 -3 9 -13 31 -23 47 -28 50 -34 64 -34 84 0 11 -4 23 -10 26
-5 3 -10 24 -10 46 l0 39 -168 0 c-117 0 -172 -4 -180 -12 -7 -7 -12 -31 -12
-54 0 -24 -5 -46 -10 -49 -6 -3 -10 -15 -10 -26 0 -10 -4 -19 -10 -19 -5 0
-10 -9 -10 -20 0 -11 -4 -20 -10 -20 -5 0 -10 -7 -10 -16 0 -35 -68 -62 -85
-34 -3 6 -14 10 -24 10 -22 0 -116 47 -131 65 -7 8 -27 15 -44 15 -27 0 -47
-15 -134 -104 -99 -101 -112 -121 -93 -141 16 -17 81 -146 81 -161 0 -8 7 -28
15 -43 13 -26 13 -30 -1 -42 -22 -18 -105 -59 -121 -59 -7 0 -13 -4 -13 -10 0
-5 -17 -10 -37 -11 -21 0 -51 -8 -68 -18 l-30 -18 -3 -143 c-3 -158 2 -172 59
-184 16 -3 42 -9 57 -12 16 -3 57 -20 93 -38 59 -30 64 -35 61 -62 -5 -61 -7
-71 -19 -86 -7 -8 -11 -17 -8 -20 3 -3 -1 -11 -10 -18 -8 -7 -15 -17 -15 -22
0 -5 -13 -29 -29 -52 l-30 -43 112 -111 c116 -115 147 -133 177 -97 15 18 109
65 131 65 10 0 21 5 24 10 8 14 47 12 65 -3 40 -32 74 -137 50 -152 -6 -3 -10
-17 -10 -30 0 -13 -5 -27 -10 -30 -6 -4 -10 -67 -10 -156 0 -140 -1 -149 -19
-149 -12 0 -27 15 -41 43 -33 65 -97 124 -177 163 -69 35 -76 36 -181 36 -61
-1 -118 -5 -129 -11 -10 -5 -33 -16 -50 -23 -18 -7 -33 -16 -33 -20 0 -5 -6
-8 -13 -8 -29 0 -128 -112 -144 -162 -3 -10 -14 -18 -24 -18 -17 0 -19 9 -19
108 0 117 -9 190 -20 172 -4 -6 -10 15 -12 48 -8 85 -75 180 -248 351 -140
138 -175 179 -246 286 -38 58 -51 84 -75 143 -6 15 -15 35 -20 44 -5 10 -9 27
-9 37 0 11 -4 23 -10 26 -5 3 -10 16 -10 29 0 12 -4 26 -9 32 -17 17 -24 99
-24 284 0 185 7 267 24 285 5 5 9 21 9 36 0 15 5 31 10 34 6 3 10 17 10 30 0
13 5 27 10 30 6 3 10 15 10 26 0 10 5 19 10 19 6 0 10 9 10 20 0 11 5 20 10
20 6 0 10 9 10 20 0 11 5 20 11 20 16 0 6 42 -13 53 -20 13 -48 -6 -48 -34 0
-11 -4 -19 -10 -19 -5 0 -10 -7 -10 -15 0 -8 -4 -23 -9 -33 -16 -31 -29 -66
-42 -107 -6 -22 -15 -48 -20 -57 -5 -10 -9 -31 -9 -47 0 -17 -4 -32 -9 -35
-28 -18 -30 -461 -2 -489 6 -6 11 -26 11 -43 0 -18 5 -36 10 -39 6 -3 10 -17
10 -31 0 -23 3 -33 28 -81 7 -13 12 -30 12 -38 0 -8 5 -15 10 -15 6 0 10 -6
10 -13 0 -18 24 -67 33 -67 4 0 7 -9 7 -20 0 -11 5 -20 10 -20 6 0 10 -6 10
-13 0 -7 9 -23 20 -35 11 -12 20 -25 20 -31 0 -5 13 -22 28 -39 15 -16 40 -45
54 -63 39 -51 59 -71 108 -108 25 -19 68 -61 95 -93 28 -32 65 -75 83 -95 17
-20 32 -43 32 -50 0 -7 5 -13 10 -13 6 0 10 -9 10 -20 0 -11 5 -20 10 -20 6 0
10 -9 10 -20 0 -11 5 -20 10 -20 6 0 10 -11 10 -24 0 -14 5 -28 10 -31 6 -4
10 -147 10 -396 l0 -390 60 -59 c33 -32 69 -61 80 -65 11 -3 20 -11 20 -16 0
-5 6 -9 13 -9 18 0 67 -24 67 -32 0 -5 11 -8 24 -8 14 0 27 -4 30 -9 14 -21
260 -41 279 -22 6 6 24 11 39 11 16 0 36 4 46 9 9 5 48 24 87 42 42 21 95 58
133 94 l63 60 -1 376 c0 207 2 384 6 393 5 14 28 16 185 16 l178 0 -3 44 c-1
26 2 44 8 43 5 -1 11 7 13 18 4 19 17 53 34 86 4 9 5 26 3 36 -4 15 1 22 18
26 37 11 88 8 88 -4 0 -7 9 -9 21 -6 12 3 22 0 26 -9 3 -8 13 -14 22 -14 9 0
27 -9 41 -20 14 -11 31 -20 38 -20 6 0 12 -4 12 -10 0 -5 12 -10 27 -10 22 0
50 23 130 102 109 109 124 139 83 168 -11 8 -20 22 -20 32 0 10 -4 18 -10 18
-5 0 -10 9 -10 20 0 11 -4 20 -10 20 -5 0 -10 11 -10 24 0 14 -4 28 -10 31 -5
3 -10 24 -10 46 0 29 4 39 16 39 8 0 22 7 31 15 8 9 28 19 44 22 16 3 29 9 29
13 0 8 34 17 103 27 l37 5 0 169 c0 161 -1 169 -19 169 -11 0 -23 5 -26 10 -3
6 -19 10 -36 10 -16 0 -37 4 -47 9 -9 5 -43 21 -74 36 -55 25 -58 28 -58 63 0
38 59 170 85 192 35 29 18 59 -96 171 -109 107 -112 109 -135 94 -13 -8 -29
-15 -35 -15 -17 0 -38 31 -39 58 0 12 -4 22 -10 22 -5 0 -10 9 -10 19 0 10
-14 45 -31 77 -18 33 -37 69 -43 81 -6 13 -14 23 -18 23 -5 0 -8 6 -8 13 0 7
-8 22 -18 33 -10 10 -29 35 -42 54 -55 77 -180 192 -279 255 -9 6 -18 13 -21
17 -8 10 -164 88 -176 88 -6 0 -17 7 -24 15 -7 9 -19 14 -27 11 -8 -3 -25 1
-38 10 -13 9 -29 13 -34 10 -6 -4 -18 -2 -28 3 -64 34 -433 52 -474 23z m961
-716 c0 -14 5 -28 10 -31 6 -3 10 -17 10 -30 0 -13 5 -27 10 -30 6 -3 10 -15
10 -26 0 -10 5 -19 10 -19 6 0 10 -9 10 -20 0 -11 4 -20 9 -20 5 0 12 -8 16
-19 3 -10 14 -29 25 -41 17 -20 23 -22 46 -12 14 7 36 12 49 12 13 0 27 5 30
10 3 6 17 10 30 10 13 0 27 5 30 10 3 6 15 10 26 10 10 0 19 3 19 8 0 8 48 32
65 32 6 0 45 -35 87 -77 l77 -78 -19 -25 c-11 -14 -20 -30 -20 -37 0 -7 -11
-33 -25 -59 -14 -25 -22 -50 -19 -55 2 -5 -1 -21 -8 -36 -22 -47 -13 -77 31
-101 13 -8 39 -22 58 -33 18 -10 42 -19 53 -19 10 0 22 -4 25 -10 3 -5 14 -10
24 -10 10 0 32 -7 49 -16 l32 -15 0 -105 c0 -91 -2 -105 -17 -110 -10 -3 -26
-10 -35 -15 -10 -5 -29 -9 -43 -9 -14 0 -25 -4 -25 -10 0 -5 -6 -10 -13 -10
-20 0 -106 -45 -131 -69 -25 -24 -26 -42 -7 -89 8 -18 11 -36 7 -39 -3 -4 0
-13 7 -22 7 -9 19 -34 26 -56 8 -22 23 -52 34 -67 11 -15 19 -29 16 -30 -3 -2
-41 -39 -86 -82 -76 -73 -84 -79 -100 -65 -10 8 -40 25 -68 38 -27 13 -58 27
-67 32 -10 5 -29 9 -42 9 -14 0 -28 5 -31 10 -11 17 -41 11 -64 -14 -28 -29
-91 -153 -91 -177 0 -10 -4 -21 -10 -24 -5 -3 -10 -19 -10 -36 l0 -29 -108 0
c-96 0 -111 2 -127 20 -10 11 -15 26 -11 35 3 9 0 26 -8 37 -8 11 -12 26 -10
33 3 6 -2 18 -10 25 -9 7 -13 16 -10 21 3 5 -2 12 -10 15 -9 3 -16 15 -16 25
0 10 -4 19 -8 19 -4 0 -13 13 -19 30 -8 22 -18 30 -37 30 -13 0 -28 -4 -31
-10 -3 -5 -19 -10 -35 -10 -16 0 -31 -4 -34 -9 -3 -4 -26 -14 -51 -21 -25 -7
-48 -16 -50 -21 -5 -7 -63 -39 -71 -39 -1 0 -40 36 -86 80 -48 47 -79 83 -73
87 10 8 17 19 45 73 26 50 30 60 30 79 0 11 5 23 10 26 6 3 10 31 10 61 0 43
-4 56 -17 61 -10 4 -20 9 -23 12 -10 12 -92 51 -106 51 -8 0 -14 5 -14 10 0 6
-13 10 -30 10 -16 0 -30 5 -30 10 0 6 -9 10 -20 10 -19 0 -20 7 -20 109 0 102
2 111 22 125 12 9 31 16 40 16 10 0 26 4 36 9 9 5 40 19 67 32 79 36 95 55 95
110 0 26 -4 51 -10 54 -5 3 -10 15 -10 26 0 10 -4 27 -9 37 -5 9 -15 31 -22
47 -7 17 -22 40 -32 52 -19 21 -19 21 57 97 42 42 83 76 93 76 14 0 89 -32
165 -71 10 -5 29 -9 43 -9 14 0 34 -6 45 -12 18 -11 23 -9 45 17 23 27 50 80
85 160 12 28 14 36 18 78 2 15 15 17 122 17 l120 0 0 -24z m-682 -1835 c9 -5
39 -20 65 -32 52 -26 137 -108 137 -133 0 -14 -33 -16 -295 -16 -280 0 -295 1
-295 18 0 25 106 125 150 141 19 7 42 17 50 21 20 12 166 12 188 1z m155 -240
l167 -1 0 -39 0 -40 -207 -5 c-199 -5 -426 -18 -560 -32 l-63 -6 0 61 0 60
148 3 c81 2 192 2 247 1 55 -1 175 -2 268 -2z m167 -211 l0 -70 -64 0 c-35 0
-88 -5 -117 -10 -30 -6 -114 -11 -187 -10 -74 0 -150 -4 -170 -10 -21 -5 -94
-11 -165 -12 l-127 -3 0 72 0 72 98 5 c53 3 172 9 264 13 91 4 170 11 174 16
4 4 72 7 151 7 l143 0 0 -70z m0 -176 c0 -18 -18 -44 -57 -85 -31 -32 -62 -59
-68 -59 -7 0 -23 -8 -36 -19 -53 -41 -148 -64 -261 -64 -118 0 -155 11 -277
78 -26 15 -131 115 -131 126 0 10 83 19 252 27 80 4 150 10 154 15 4 4 101 7
216 7 l208 0 0 -26z"/>
<path d="M1905 2569 c-4 -5 -19 -9 -36 -9 -16 0 -37 -4 -47 -9 -9 -4 -40 -20
-68 -34 -150 -75 -257 -205 -313 -378 -24 -77 -12 -297 20 -361 5 -10 9 -25 9
-33 0 -8 5 -15 10 -15 6 0 10 -7 10 -16 0 -24 53 -94 122 -160 58 -56 171
-124 204 -124 8 0 14 -4 14 -10 0 -5 18 -10 39 -10 22 0 43 -4 46 -10 8 -13
182 -13 190 0 3 6 24 10 46 10 21 0 39 5 39 10 0 6 14 10 30 10 17 0 30 5 30
10 0 6 9 10 20 10 11 0 20 5 20 10 0 6 6 10 13 10 6 0 25 11 41 25 16 14 32
25 36 25 11 0 110 100 110 111 0 5 9 19 20 31 11 12 20 28 20 35 0 7 5 13 10
13 6 0 10 9 10 19 0 11 5 23 10 26 6 3 10 16 10 29 0 12 4 26 9 32 29 30 29
307 0 339 -5 5 -9 16 -9 25 0 21 -47 115 -65 130 -8 7 -15 18 -15 24 0 13
-101 112 -145 142 -46 31 -145 76 -189 87 -55 13 -244 18 -251 6z m170 -59 c3
-5 26 -10 51 -10 24 0 44 -4 44 -10 0 -5 14 -10 30 -10 17 0 30 -4 30 -10 0
-5 9 -10 20 -10 11 0 20 -4 20 -8 0 -5 12 -15 27 -23 38 -19 153 -135 153
-154 0 -8 3 -15 8 -15 11 0 40 -58 61 -125 14 -46 18 -85 16 -168 -1 -64 -7
-113 -14 -120 -6 -6 -11 -21 -11 -33 0 -13 -5 -26 -10 -29 -6 -4 -8 -10 -5
-15 3 -5 1 -11 -4 -14 -5 -3 -19 -25 -31 -48 -47 -92 -148 -170 -295 -228 -65
-26 -248 -25 -297 1 -10 5 -24 9 -32 9 -17 0 -113 50 -146 76 -24 19 -72 68
-110 112 -11 12 -20 29 -20 37 0 8 -3 15 -8 15 -4 0 -13 15 -20 33 -7 17 -18
40 -23 49 -5 10 -9 30 -9 46 0 15 -5 33 -11 39 -11 11 -8 153 5 208 14 58 42
117 88 185 53 80 105 123 203 169 28 13 58 27 67 32 10 5 33 9 52 9 19 0 38 5
41 10 3 6 33 10 65 10 32 0 62 -4 65 -10z"/>
<path d="M1856 2295 c-94 -47 -117 -70 -157 -155 -6 -14 -15 -33 -20 -42 -12
-23 -12 -203 0 -226 5 -9 15 -30 22 -47 26 -56 93 -126 141 -147 15 -7 28 -16
28 -20 0 -5 13 -8 29 -8 17 0 33 -4 36 -10 3 -5 40 -10 81 -10 43 0 74 4 74
10 0 6 8 10 18 10 31 0 116 48 155 88 43 44 87 124 87 159 0 13 5 23 10 23 6
0 10 28 10 65 0 37 -4 65 -10 65 -5 0 -10 10 -10 23 0 31 -47 124 -72 141 -17
13 -22 12 -40 -6 -19 -19 -19 -20 -1 -45 52 -74 56 -86 56 -178 0 -73 -4 -97
-22 -128 -26 -47 -105 -127 -126 -127 -8 0 -15 -4 -15 -10 0 -5 -15 -10 -34
-10 -19 0 -38 -4 -41 -10 -3 -5 -24 -10 -45 -10 -21 0 -42 5 -45 10 -3 6 -14
10 -24 10 -19 0 -100 39 -126 60 -26 22 -75 100 -75 120 0 10 -4 22 -10 25 -5
3 -10 35 -10 70 0 35 5 67 10 70 6 3 10 15 10 25 0 42 102 160 138 160 7 0 12
5 12 10 0 6 13 10 29 10 17 0 33 5 36 10 3 6 28 10 56 10 46 0 49 2 49 25 0
24 -2 25 -67 25 -58 0 -79 -5 -137 -35z"/>
<path d="M2078 2325 c-13 -14 6 -56 28 -61 13 -3 24 -10 24 -15 0 -5 9 -9 20
-9 11 0 20 -4 20 -10 0 -16 49 -23 65 -10 8 7 15 16 15 20 0 10 -98 70 -115
70 -8 0 -17 5 -20 10 -7 11 -28 13 -37 5z m77 -55 c3 -5 1 -10 -4 -10 -6 0
-11 5 -11 10 0 6 2 10 4 10 3 0 8 -4 11 -10z"/>
<path d="M1195 3094 c-22 -14 -48 -27 -57 -31 -10 -3 -18 -9 -18 -14 0 -5 -6
-9 -13 -9 -32 0 -219 -185 -256 -254 -8 -14 -18 -26 -23 -26 -4 0 -8 -9 -8
-20 0 -11 -4 -20 -10 -20 -5 0 -10 -9 -10 -20 0 -11 -4 -20 -10 -20 -5 0 -10
-7 -10 -15 0 -8 -9 -30 -20 -50 -11 -20 -20 -44 -20 -55 0 -10 -4 -21 -9 -24
-5 -3 -12 -25 -15 -48 -4 -24 -11 -72 -17 -108 -6 -36 -13 -107 -15 -159 -6
-109 4 -141 45 -141 l26 0 0 156 c0 108 4 162 12 173 7 9 13 33 13 54 0 20 5
37 10 37 6 0 10 11 10 25 0 14 5 34 10 45 6 11 15 29 20 40 6 11 10 27 10 35
0 8 5 15 10 15 6 0 10 8 10 18 0 11 9 27 20 37 11 10 18 21 15 25 -2 4 7 18
20 30 14 13 25 28 25 35 0 28 223 215 257 215 6 0 16 7 23 15 7 8 16 13 20 10
4 -2 16 5 26 16 14 15 16 24 8 37 -16 25 -34 24 -79 -4z"/>
<path d="M553 2725 c-7 -8 -13 -21 -13 -30 0 -8 -4 -15 -10 -15 -5 0 -10 -9
-10 -19 0 -11 -4 -23 -10 -26 -5 -3 -10 -17 -10 -30 0 -13 -4 -26 -9 -29 -25
-16 -41 -377 -19 -427 19 -42 56 -40 60 4 2 17 -3 47 -10 66 -21 53 -3 292 24
322 8 9 11 19 7 22 -6 7 -3 17 37 98 13 25 20 53 17 62 -8 21 -37 21 -54 2z"/>
<path d="M2936 1195 c-9 -13 -16 -30 -16 -38 0 -18 -81 -177 -110 -217 -42
-55 -203 -220 -216 -220 -6 0 -17 -7 -24 -15 -13 -16 -149 -85 -168 -85 -6 0
-12 -4 -12 -10 0 -5 -13 -10 -30 -10 -16 0 -30 -4 -30 -10 0 -5 -11 -10 -24
-10 -33 0 -53 -25 -36 -45 14 -16 70 -20 98 -6 9 5 31 14 47 21 17 7 38 16 47
21 10 5 25 9 33 9 8 0 15 4 15 9 0 5 8 11 18 14 24 8 72 38 101 65 14 12 29
22 34 22 12 0 167 162 167 175 0 6 9 20 20 30 11 10 20 24 20 30 0 7 7 18 15
25 16 13 85 151 85 170 0 6 5 19 11 29 14 22 4 71 -15 71 -8 0 -21 -11 -30
-25z"/>
<path d="M2950 643 c-104 -105 -315 -243 -371 -243 -10 0 -21 -4 -24 -10 -3
-5 -17 -10 -31 -10 -14 0 -35 -5 -46 -11 -11 -6 -39 -12 -62 -12 -37 -2 -41
-5 -41 -27 0 -24 3 -25 64 -28 36 -2 69 2 74 7 6 6 26 11 44 11 18 0 33 5 33
10 0 6 7 10 15 10 8 0 23 4 33 9 158 79 159 80 172 96 7 8 17 15 22 15 22 0
205 164 214 192 6 20 -11 48 -30 47 -6 0 -36 -25 -66 -56z"/>
</g>
</svg>
