<svg version="1.1" id="Layer_1" xmlns="http://www.w3.org/2000/svg" xmlns:xlink="http://www.w3.org/1999/xlink" x="0px" y="0px"
	 width="100%" viewBox="0 0 700 640" enable-background="new 0 0 700 640" xml:space="preserve">

<path fill="#c1b3a5" stroke="#c1b3a5" stroke-width="15"
	d="
M701.000000,246.531433 
	C700.358643,247.290131 699.189087,247.524704 699.151978,247.878357 
	C697.513977,263.454468 689.246521,275.775055 679.988220,287.685516 
	C679.078979,288.855164 678.891479,291.262085 679.397156,292.743805 
	C682.311462,301.282959 687.098450,309.502563 688.293335,318.235107 
	C690.154785,331.839172 690.305359,345.809845 684.533691,358.994232 
	C673.289368,384.680237 653.583435,399.892639 626.100891,406.305878 
	C625.131165,426.453003 618.338440,444.652496 604.007446,459.349884 
	C589.715515,474.007233 571.386353,480.171295 551.244385,482.074799 
	C550.467651,493.736816 548.522949,505.002350 542.906006,515.053955 
	C530.577148,537.116760 512.132629,550.954407 486.843903,555.003174 
	C484.592438,555.363586 481.948151,555.061157 480.182770,556.172729 
	C478.349701,557.326904 476.868805,559.646729 476.100037,561.770325 
	C473.854401,567.973633 472.667328,574.621094 469.932953,580.574402 
	C463.328918,594.952820 451.494965,604.019958 436.500031,607.506653 
	C420.690582,611.182739 405.032013,609.601257 391.486603,599.329590 
	C388.038818,602.441345 384.678558,605.474182 380.312042,609.415161 
	C380.151428,606.445312 380.009460,605.045288 380.009399,603.645264 
	C379.999512,426.320099 379.980652,248.994934 380.162537,71.669952 
	C380.165649,68.650764 381.991974,65.125244 384.007324,62.700058 
	C395.741241,48.579700 409.842316,37.720200 428.363220,34.388390 
	C444.419769,31.499903 460.298065,32.044300 475.302948,39.690968 
	C486.776428,45.537956 486.975525,45.773674 498.321777,39.869366 
	C523.111450,26.969410 559.275574,32.508446 578.976196,51.580627 
	C584.135742,56.575584 589.541565,55.938747 596.145142,55.328358 
	C616.134338,53.480701 635.577148,54.892170 653.224854,66.867493 
	C671.061401,78.971001 682.815186,95.455612 687.448669,115.766068 
	C691.386841,133.028931 690.752380,151.006607 682.124756,167.583466 
	C680.117126,171.440872 678.387207,175.442825 676.771912,178.864746 
	C682.132263,187.084824 688.052551,194.900574 692.536011,203.468231 
	C695.702332,209.518860 696.901245,216.595093 699.032593,223.195999 
	C699.316223,224.074478 699.918762,224.850021 700.686829,225.336609 
	C701.000000,232.020950 701.000000,239.041901 701.000000,246.531433 
M392.000000,484.500000 
	C392.333618,508.591217 393.051849,532.686401 392.801941,556.771606 
	C392.708679,565.762390 395.136993,572.580872 401.851196,578.472351 
	C413.881836,589.028748 431.777771,589.928284 443.930328,578.607178 
	C451.322449,571.720764 454.017914,563.010498 454.280243,554.085144 
	C447.461914,550.322571 440.884003,546.891174 434.511810,543.112915 
	C429.489044,540.134827 428.425507,535.097168 431.176819,529.531006 
	C433.856110,524.110535 438.565826,522.029663 443.974182,524.067261 
	C446.853058,525.151978 449.595642,526.592529 452.438324,527.780151 
	C462.901306,532.151428 473.754211,535.776062 485.063446,532.813416 
	C507.156677,527.025879 523.316406,514.415771 526.920044,490.515625 
	C528.133850,482.465149 527.900574,473.647644 525.923950,465.785248 
	C522.379639,451.687042 512.451538,441.844788 500.069977,434.580872 
	C493.532593,430.745544 487.314728,429.889099 479.625488,433.310486 
	C472.097900,436.659912 463.393097,437.708954 455.078186,438.811798 
	C450.226135,439.455322 445.989319,436.299377 444.393890,431.664825 
	C442.895142,427.311218 443.461304,422.351929 447.931305,419.783905 
	C451.303711,417.846405 455.347107,416.775513 459.228210,416.081238 
	C470.992004,413.976898 480.640930,408.539429 487.997498,399.084717 
	C493.671906,391.791870 495.824097,383.207245 496.969330,374.301636 
	C497.702423,368.600647 501.655914,364.526337 506.563812,363.217926 
	C511.989838,361.771423 515.767273,365.681732 517.312561,369.314606 
	C519.115417,373.553162 519.613708,379.238098 518.411133,383.682007 
	C515.727295,393.599854 511.634735,403.136505 508.113953,412.834442 
	C511.167236,414.691772 515.244202,416.767792 518.870850,419.452057 
	C530.844971,428.314789 539.801941,439.623810 545.768799,453.331573 
	C548.224426,458.972839 550.988525,460.174225 557.026917,458.930054 
	C557.810303,458.768646 558.511780,458.218231 559.294800,458.044891 
	C581.585876,453.109772 596.201782,440.001831 601.932251,417.669769 
	C604.495483,407.680511 603.978210,407.070740 594.243286,403.978668 
	C571.229736,396.669006 554.366272,382.341156 545.140747,359.864807 
	C543.047363,354.764526 540.138794,352.277435 535.011963,350.937195 
	C525.657349,348.491730 516.918823,344.693604 509.951538,337.528595 
	C506.915710,334.406677 505.974823,330.797577 507.524231,327.180817 
	C509.218353,323.226349 512.237244,319.273560 517.147827,320.182587 
	C521.787659,321.041504 526.452942,322.879028 530.572998,325.224335 
	C543.900757,332.810944 560.004333,332.943756 572.647522,324.712036 
	C577.679810,321.435669 582.098938,317.231842 586.942688,313.646698 
	C590.183899,311.247650 597.469482,311.294525 599.942810,313.414062 
	C604.372253,317.209991 605.917236,322.674194 602.612854,327.496521 
	C599.457886,332.100891 595.595154,336.651215 591.044495,339.765320 
	C584.562500,344.201141 577.155518,347.279938 570.173401,350.994446 
	C568.647400,351.806274 565.630859,352.102264 567.487671,354.893188 
	C571.794861,361.367249 575.719788,367.913483 582.186768,372.965179 
	C608.098511,393.206177 643.978638,384.804169 659.864563,357.689575 
	C669.519348,341.210388 669.090332,323.756744 660.306946,306.625854 
	C659.084167,304.241089 658.132996,303.899841 655.380615,304.691864 
	C648.872498,306.564728 642.181824,308.085205 635.462585,308.857300 
	C629.691345,309.520477 626.401855,306.577850 625.141357,301.321716 
	C623.913086,296.200470 625.828308,292.145050 630.942017,289.588074 
	C633.096924,288.510590 635.403320,287.653320 637.727783,287.010254 
	C664.167847,279.695618 682.471558,252.552094 676.998596,226.373108 
	C673.877869,211.445435 665.953247,199.880081 653.128784,191.527756 
	C645.138367,186.323730 636.243225,184.007645 627.023010,183.135544 
	C620.457581,182.514542 613.969666,183.964905 608.230042,186.376694 
	C610.464050,193.708710 613.028320,200.229599 614.297302,206.993515 
	C615.070190,211.112823 614.826477,216.006668 613.266846,219.829391 
	C611.392761,224.422836 605.539917,226.265030 600.957825,224.882675 
	C595.760742,223.314804 594.261902,218.835709 592.941162,214.117844 
	C591.429993,208.719330 590.162842,203.060684 587.513367,198.212570 
	C582.017212,188.155807 572.744568,183.670700 561.468872,182.982803 
	C555.549377,182.621658 550.146790,177.835022 550.915649,170.243332 
	C551.509583,164.378937 555.094299,161.172379 561.882080,160.961075 
	C571.113770,160.673691 579.448059,163.670303 587.743530,167.203003 
	C589.516479,167.958008 592.074829,168.214401 593.795410,167.520493 
	C602.594849,163.971771 611.468628,161.264297 621.093384,160.917480 
	C633.567017,160.467987 645.513733,162.496948 657.281067,167.444748 
	C668.660400,147.440353 670.875549,126.826996 660.020020,106.951988 
	C647.165283,83.416672 625.936401,74.131653 598.727173,77.269127 
	C599.183350,78.920952 599.520569,80.272430 599.929565,81.601837 
	C602.687439,90.567513 604.600220,99.646233 604.015076,109.118439 
	C603.615417,115.590019 596.947266,120.344147 590.825500,118.370087 
	C585.064270,116.512306 582.388611,112.526894 581.968872,105.359604 
	C581.406799,95.762489 578.622253,86.571198 573.129578,78.877884 
	C559.779846,60.179279 541.208618,51.906452 518.522339,56.230179 
	C500.620667,59.642029 483.734802,75.312622 478.865295,93.118645 
	C477.738342,97.239494 478.813843,99.000046 482.255676,100.767204 
	C486.547455,102.970772 490.879303,105.312553 494.632507,108.299927 
	C500.793427,113.203697 500.659393,121.812286 494.375916,125.949837 
	C488.915436,129.545517 483.573639,127.257622 478.650024,124.123688 
	C469.632172,118.383690 461.217072,116.329773 451.898041,124.410652 
	C450.160431,125.917419 447.501953,127.131943 445.272675,127.125000 
	C441.765839,127.114082 437.432068,126.988167 434.968323,125.014076 
	C431.898773,122.554543 430.274017,117.791389 432.822296,113.888802 
	C435.343048,110.028275 438.337006,105.149490 442.212524,103.764069 
	C451.652863,100.389343 456.031738,94.506134 458.333160,84.930595 
	C460.248260,76.962288 464.854858,69.640877 468.380798,61.784485 
	C467.534088,61.051903 466.571320,59.666843 465.272430,59.181652 
	C453.870819,54.922619 442.238068,53.599751 430.345306,57.019550 
	C413.420593,61.886318 401.100739,72.321526 395.294586,88.904755 
	C392.717712,96.264755 392.141754,104.628006 392.129883,112.538078 
	C391.944427,236.191849 391.999969,359.845947 392.000000,484.500000 
z"/>
<path fill="#c1b3a5" stroke="#c1b3a5" stroke-width="15"
	d="
M1.000000,206.468658 
	C1.666259,205.048508 2.885981,204.114853 2.917312,203.142899 
	C3.588873,182.309097 9.643176,162.923676 17.923733,143.976135 
	C28.840353,118.996750 44.363499,97.398300 64.462341,79.141693 
	C80.894669,64.215530 99.633614,52.659843 120.507027,45.183453 
	C133.402832,40.564457 146.741547,36.530949 160.223694,34.401505 
	C171.464233,32.626118 183.210175,33.748852 194.718704,34.071724 
	C203.245316,34.310944 211.970703,34.352833 220.214066,36.219872 
	C233.256622,39.173885 246.504456,42.363964 258.677277,47.705853 
	C271.775208,53.453705 283.957123,61.445412 296.101044,69.148087 
	C302.677094,73.319160 308.340942,78.928413 314.359833,83.842796 
	C316.598053,78.881004 318.727417,74.160469 320.856812,69.439934 
	C321.237854,69.554031 321.618927,69.668129 322.000000,69.782227 
	C322.000000,71.539001 322.000000,73.295784 322.000000,75.052559 
	C322.000000,250.677231 322.000031,426.301910 321.999817,601.926575 
	C321.999817,609.138916 318.509277,611.569092 311.806183,608.086487 
	C307.276001,605.732849 303.053894,602.404663 299.407837,598.791931 
	C272.658875,572.287781 246.025848,545.665649 219.484619,518.953186 
	C197.327225,496.652924 175.323532,474.199738 153.290710,451.776001 
	C138.264404,436.483124 123.298416,421.130920 108.318008,405.792999 
	C95.433090,392.600616 82.132965,379.780426 69.808807,366.082733 
	C56.631290,351.436584 41.307991,338.683716 30.916939,321.522522 
	C19.222034,302.208008 10.351879,281.835449 6.053309,259.626953 
	C4.662603,252.441879 4.022906,245.112915 2.949654,237.863098 
	C2.817926,236.973282 2.126741,236.166260 1.347408,235.660431 
	C1.000000,226.312439 1.000000,216.624878 1.000000,206.468658 
M65.457947,328.970673 
	C70.202263,334.044678 74.887581,339.175415 79.703072,344.180969 
	C90.064522,354.951385 100.446022,365.703308 110.904198,376.379669 
	C130.340378,396.221497 149.806564,416.034119 169.316116,435.803833 
	C198.422958,465.298859 227.546692,494.777405 256.725220,524.201477 
	C273.034271,540.647888 289.481476,556.957336 305.817291,573.377319 
	C306.939636,574.505493 307.649872,576.043640 308.551758,577.391113 
	C309.034515,577.080994 309.517242,576.770935 310.000000,576.460815 
	C310.000000,574.864929 310.000000,573.269104 310.000000,571.673218 
	C310.000000,555.009888 309.999969,538.346497 310.000000,521.683167 
	C310.000061,386.543396 309.986572,251.403625 310.077759,116.263924 
	C310.080078,112.822807 309.278992,110.313049 306.657074,108.065414 
	C300.410034,102.710129 294.380615,97.101868 288.174896,91.697266 
	C274.650299,79.918579 259.189545,71.312553 242.493362,65.080833 
	C221.458023,57.229557 199.679840,53.735245 177.188629,56.022625 
	C168.747971,56.881046 160.186951,57.326534 151.934219,59.123886 
	C121.965828,65.650642 96.009079,79.923454 74.156693,101.416344 
	C59.246910,116.080841 47.552586,132.973511 38.843853,152.128647 
	C29.093143,173.575623 24.071709,195.938690 24.161694,219.338348 
	C24.201857,229.781693 25.455698,240.304230 27.105217,250.639740 
	C30.337242,270.890808 37.995853,289.659607 48.739708,307.025146 
	C53.432415,314.610077 59.515896,321.334534 65.457947,328.970673 
z"/>

<path fill="#c1b3a5" stroke="#c1b3a5" stroke-width="15"
	d="
M495.170532,225.004211 
	C484.315125,227.041611 474.418823,230.115463 465.686005,236.633804 
	C453.722260,245.563736 447.761505,257.769806 445.041809,271.941833 
	C444.396088,275.306549 444.946289,279.029419 443.754761,282.129517 
	C442.109131,286.410980 438.562714,288.853302 433.565491,289.068390 
	C428.353302,289.292694 424.281921,286.995392 423.409729,282.355652 
	C422.385895,276.909210 422.514984,271.007385 423.367767,265.492310 
	C425.775940,249.918610 433.285065,236.558273 444.188202,225.530624 
	C455.732422,213.854553 469.750427,206.028198 486.412628,204.073547 
	C490.686951,203.572128 495.152924,203.453964 499.382874,204.111557 
	C506.103516,205.156342 508.766022,209.296631 507.995972,216.021698 
	C507.385040,221.357224 503.141418,224.857635 497.108673,224.998474 
	C496.609131,225.010147 496.109070,225.000641 495.170532,225.004211 
z"/>
<path fill="#c1b3a5" stroke="#c1b3a5" stroke-width="15" 
	d="
M49.031502,182.137695 
	C53.289402,166.984833 59.261124,153.035522 67.964447,140.364166 
	C84.044930,116.952248 104.310844,98.405548 130.549377,86.849152 
	C149.253983,78.610977 168.772354,74.824402 189.213425,76.000549 
	C193.047836,76.221176 196.755432,80.361076 196.999146,84.699341 
	C197.394928,91.744263 194.650696,96.225914 189.189957,96.965019 
	C180.949310,98.080391 172.648392,98.778145 164.431320,100.034348 
	C146.191223,102.822853 130.244324,111.019669 115.676880,121.918053 
	C93.823135,138.267548 79.247627,159.890427 71.654175,185.991318 
	C68.949036,195.289673 67.756020,205.037781 66.036140,214.609955 
	C64.497917,223.171066 61.395615,225.779312 53.165985,224.997406 
	C48.042564,224.510620 43.342464,218.659195 44.117737,212.348221 
	C45.343678,202.368683 47.332371,192.482849 49.031502,182.137695 
z"/>
<path fill="#c1b3a5" stroke="#c1b3a5" stroke-width="15" 
	d="
M65.505081,278.792480 
	C59.800034,278.836090 54.919415,275.212555 53.035133,269.866211 
	C51.966305,266.833618 50.991619,263.766754 50.023537,260.699890 
	C48.037472,254.407990 49.940315,249.915878 55.984303,246.528488 
	C60.538212,243.976212 64.885094,244.522568 68.414948,250.276947 
	C71.612175,255.489105 73.505043,261.753082 74.785477,267.804535 
	C75.701805,272.135223 71.097656,276.763550 65.505081,278.792480 
z"/>
</svg>