<?xml version="1.0" standalone="no"?>
<!DOCTYPE svg PUBLIC "-//W3C//DTD SVG 20010904//EN"
 "http://www.w3.org/TR/2001/REC-SVG-20010904/DTD/svg10.dtd">
<svg version="1.0" xmlns="http://www.w3.org/2000/svg"
 width="512.000000pt" height="512.000000pt" viewBox="0 0 512.000000 512.000000"
 preserveAspectRatio="xMidYMid meet">

<g transform="translate(0.000000,512.000000) scale(0.100000,-0.100000)"
fill="#c1b3a5" stroke="#c1b3a5" stroke-width="80">
<path d="M1235 4845 c-475 -89 -860 -377 -1070 -800 -71 -144 -105 -239 -137
-389 -29 -136 -31 -417 -5 -551 50 -252 143 -463 288 -653 51 -66 1409 -1451
1966 -2004 186 -185 190 -188 232 -188 51 0 78 12 112 52 l26 31 39 -26 c64
-42 145 -60 244 -55 74 3 98 9 156 38 124 61 210 174 235 313 l12 66 51 6
c284 36 507 255 535 525 l6 64 75 12 c98 16 175 44 245 88 154 99 254 262 273
445 l7 64 55 13 c205 52 382 226 435 430 17 66 20 217 4 284 -5 25 -26 79 -45
121 l-36 76 53 69 c113 150 151 312 114 489 -20 94 -74 202 -136 270 -38 41
-49 58 -41 68 25 29 73 140 87 199 17 74 19 215 4 290 -6 29 -30 94 -54 144
-71 148 -195 258 -363 323 -61 23 -80 25 -207 25 -77 0 -151 -5 -165 -11 -22
-9 -30 -5 -76 36 -105 96 -249 151 -392 151 -108 0 -171 -14 -268 -61 l-82
-38 -68 35 c-94 47 -162 64 -269 64 -105 0 -183 -18 -274 -63 -116 -57 -252
-206 -283 -309 -6 -21 -13 -38 -16 -38 -2 0 -30 22 -61 48 -198 169 -399 272
-640 329 -137 32 -438 41 -566 18z m452 -170 c267 -43 495 -161 706 -364 l77
-74 -1 -1871 0 -1871 -490 495 c-1325 1339 -1512 1532 -1576 1627 -102 153
-166 304 -205 486 -28 133 -31 378 -5 509 37 187 119 379 223 524 211 293 498
475 849 539 97 18 312 18 422 0z m1509 0 c27 -8 57 -20 67 -27 17 -13 16 -17
-17 -72 -32 -53 -65 -138 -80 -209 -4 -15 -14 -30 -24 -34 -98 -33 -162 -88
-162 -141 0 -81 83 -109 155 -52 65 52 139 52 216 0 55 -37 101 -39 134 -5 38
38 34 80 -14 125 -21 20 -60 46 -86 56 -45 18 -46 20 -41 53 16 105 119 230
233 283 55 26 83 33 154 36 108 5 174 -13 260 -71 110 -73 173 -181 188 -321
6 -58 12 -73 35 -93 42 -36 101 -25 126 23 17 32 7 152 -19 226 l-20 58 25 6
c46 12 177 -3 236 -25 116 -45 222 -150 270 -268 19 -49 23 -76 23 -173 0
-112 -1 -117 -37 -192 l-36 -76 -68 24 c-127 46 -296 42 -412 -11 l-54 -25
-38 20 c-51 26 -144 50 -193 50 -27 0 -45 -7 -62 -25 -54 -53 -16 -145 58
-145 46 0 113 -24 154 -56 52 -40 82 -93 97 -175 16 -83 38 -109 91 -109 25 0
40 8 59 31 14 17 26 38 26 48 0 42 -24 140 -44 183 l-23 47 31 10 c60 18 117
21 184 11 283 -46 442 -348 316 -603 -53 -109 -169 -203 -282 -229 -68 -15
-107 -56 -98 -102 15 -73 77 -88 191 -47 33 12 65 23 70 24 6 1 24 -25 40 -58
28 -56 30 -68 30 -170 0 -99 -3 -116 -28 -169 -134 -286 -505 -345 -710 -112
-28 31 -67 98 -67 114 0 4 25 16 56 27 72 24 186 104 219 152 30 46 32 82 4
117 -16 20 -29 26 -60 26 -34 0 -47 -7 -87 -46 -69 -68 -153 -105 -240 -106
-82 -1 -127 12 -204 59 -65 40 -104 39 -138 -4 -41 -52 -19 -101 70 -154 34
-21 92 -46 129 -55 67 -17 68 -18 80 -61 20 -68 109 -191 176 -246 70 -56 157
-101 235 -120 51 -13 55 -16 58 -46 4 -41 -23 -134 -55 -189 -58 -98 -168
-177 -281 -201 -77 -16 -112 -14 -119 7 -47 140 -167 281 -287 338 -20 10 -35
20 -33 23 37 67 79 168 87 210 17 90 13 119 -19 152 -36 36 -70 37 -109 4 -24
-20 -30 -34 -36 -86 -17 -170 -146 -298 -314 -315 -54 -6 -66 -11 -88 -37 -20
-24 -24 -38 -20 -61 8 -44 49 -76 94 -76 51 0 155 26 202 50 51 26 68 25 135
-5 78 -34 168 -123 208 -204 30 -63 32 -72 32 -181 0 -111 -1 -118 -33 -183
-83 -167 -267 -266 -444 -237 -34 5 -95 25 -136 45 -41 19 -83 35 -94 35 -11
0 -33 -13 -49 -29 -33 -34 -38 -75 -11 -107 21 -26 93 -67 146 -84 l38 -12 -7
-52 c-17 -134 -120 -226 -252 -226 -102 0 -201 65 -239 156 -12 28 -14 338
-14 1897 0 1804 1 1866 19 1919 44 128 139 223 266 267 72 25 189 28 261 6z"/>
<path d="M1277 4504 c-232 -42 -435 -152 -606 -329 -193 -199 -300 -433 -326
-710 -7 -67 -6 -73 20 -103 21 -25 35 -32 61 -32 55 0 81 33 89 116 24 247
128 468 297 630 168 162 371 256 583 270 107 7 121 11 145 36 28 31 26 83 -5
113 -22 23 -32 25 -102 24 -43 0 -113 -7 -156 -15z"/>
<path d="M409 3131 c-35 -35 -35 -48 -8 -129 34 -101 93 -129 150 -73 34 35
36 58 9 137 -33 96 -94 122 -151 65z"/>
<path d="M3372 3485 c-221 -48 -410 -239 -457 -461 -19 -88 -19 -128 0 -163
37 -73 155 -43 155 39 0 107 63 247 143 317 76 67 191 112 285 113 84 0 115
117 41 155 -34 18 -83 18 -167 0z"/>
</g>
</svg>
