<svg id="svg" xmlns="http://www.w3.org/2000/svg" xmlns:xlink="http://www.w3.org/1999/xlink" width="400" height="400" viewBox="0, 0, 400,400"><g id="svgg"><path id="path0" d="M0.000 0.600 C 0.000 1.078,0.158 1.115,0.781 0.781 C 1.773 0.250,1.773 0.000,0.781 0.000 C 0.339 0.000,0.000 0.260,0.000 0.600 M192.383 83.863 C 146.787 86.853,108.962 116.935,101.913 155.812 C 96.347 186.512,113.262 217.233,140.758 226.363 C 148.930 229.076,148.406 229.029,171.973 229.192 L 193.359 229.340 193.359 250.998 L 193.359 272.656 189.309 272.656 C 178.110 272.656,168.344 268.570,160.959 260.792 L 159.612 259.375 149.598 259.375 C 144.090 259.375,139.472 259.486,139.336 259.623 C 138.838 260.120,143.266 265.920,147.070 269.755 C 158.699 281.476,172.142 287.549,188.574 288.504 L 193.359 288.783 193.359 297.126 L 193.359 305.469 190.512 305.469 C 163.519 305.469,138.227 290.248,122.597 264.599 L 119.414 259.375 109.317 259.375 C 102.606 259.375,99.219 259.511,99.219 259.780 C 99.219 261.770,106.702 275.889,111.093 282.186 C 131.648 311.656,168.571 329.311,205.089 327.132 L 209.766 326.853 209.766 263.683 L 209.766 200.514 216.504 200.258 C 220.210 200.117,225.938 200.002,229.232 200.001 C 245.716 199.998,257.623 191.077,262.116 175.364 C 268.155 154.243,250.312 128.566,226.630 124.299 C 224.018 123.828,224.178 123.301,224.307 131.981 L 224.414 139.132 228.125 140.375 C 246.616 146.572,254.606 168.332,242.874 180.542 C 238.374 185.225,235.041 185.981,220.326 185.657 L 209.766 185.424 209.766 134.761 L 209.766 84.097 207.129 83.848 C 204.536 83.603,196.212 83.611,192.383 83.863 M224.219 96.035 L 224.219 106.148 226.660 106.613 C 258.751 112.725,284.227 144.093,279.926 172.199 C 277.915 185.337,270.155 198.218,259.981 205.309 C 256.051 208.048,256.123 207.819,258.691 209.395 C 282.026 223.722,287.439 252.250,271.362 276.169 C 260.668 292.080,247.415 300.492,225.977 304.976 L 224.414 305.302 224.310 315.302 L 224.206 325.302 226.871 324.794 C 288.130 313.122,321.787 249.609,287.962 209.511 L 285.605 206.717 286.983 205.214 C 303.261 187.461,305.016 156.429,291.131 131.847 C 278.719 109.872,253.452 91.546,229.161 86.899 C 227.410 86.564,225.581 86.207,225.098 86.106 L 224.219 85.923 224.219 96.035 M193.359 114.005 L 193.359 122.542 187.793 122.772 C 160.208 123.916,138.281 144.214,138.281 168.606 L 138.281 171.875 145.646 171.875 L 153.011 171.875 153.226 168.066 C 154.153 151.643,170.222 138.281,189.046 138.281 L 193.359 138.281 193.359 168.914 L 193.359 199.547 192.285 199.757 C 188.705 200.457,149.750 199.702,146.680 198.873 C 120.113 191.699,113.417 160.385,132.846 134.180 C 145.976 116.470,166.927 106.201,191.309 105.526 L 193.359 105.469 193.359 114.005 M100.091 170.703 C 100.091 171.455,100.171 171.763,100.269 171.387 C 100.368 171.011,100.368 170.396,100.269 170.020 C 100.171 169.644,100.091 169.951,100.091 170.703 M224.307 222.754 L 224.414 229.492 229.904 229.688 C 256.801 230.644,253.165 267.520,225.684 272.479 L 224.219 272.743 224.219 280.317 L 224.219 287.891 225.171 287.891 C 225.695 287.891,227.277 287.623,228.688 287.296 C 259.543 280.140,273.910 244.990,254.084 225.163 C 247.295 218.374,241.265 216.016,230.696 216.016 L 224.200 216.016 224.307 222.754 " stroke="none"  fill-rule="evenodd"></path></g></svg>